<svg xmlns="http://www.w3.org/2000/svg" width="16.01" height="16.007" viewBox="0 0 16.01 16.007">
  <path id="Icon_awesome-instagram" data-name="Icon awesome-instagram" d="M8,6.137a4.1,4.1,0,1,0,4.1,4.1A4.1,4.1,0,0,0,8,6.137Zm0,6.772a2.668,2.668,0,1,1,2.668-2.668A2.673,2.673,0,0,1,8,12.909Zm5.229-6.94a.957.957,0,1,1-.957-.957A.955.955,0,0,1,13.231,5.969Zm2.718.972a4.737,4.737,0,0,0-1.293-3.354A4.768,4.768,0,0,0,11.3,2.294c-1.322-.075-5.283-.075-6.6,0A4.761,4.761,0,0,0,1.344,3.583,4.753,4.753,0,0,0,.051,6.937c-.075,1.322-.075,5.283,0,6.6A4.737,4.737,0,0,0,1.344,16.9,4.774,4.774,0,0,0,4.7,18.188c1.322.075,5.283.075,6.6,0A4.737,4.737,0,0,0,14.656,16.9a4.768,4.768,0,0,0,1.293-3.354c.075-1.322.075-5.279,0-6.6Zm-1.707,8.019a2.7,2.7,0,0,1-1.522,1.522C11.666,16.9,9.166,16.8,8,16.8s-3.668.093-4.718-.321a2.7,2.7,0,0,1-1.522-1.522c-.418-1.054-.321-3.554-.321-4.718s-.093-3.668.321-4.718A2.7,2.7,0,0,1,3.283,4C4.337,3.583,6.837,3.68,8,3.68S11.67,3.587,12.72,4a2.7,2.7,0,0,1,1.522,1.522c.418,1.054.321,3.554.321,4.718S14.659,13.909,14.242,14.959Z" transform="translate(0.005 -2.238)"/>
</svg>
