<svg xmlns="http://www.w3.org/2000/svg" xmlns:xlink="http://www.w3.org/1999/xlink" width="current" height="current" viewBox="0 0 200 200" class="home-hero-carousel__logo"><defs><clipPath id="clip-path-left"><rect width="200" height="200" fill="#fff" class="home-hero-carousel__logo-mask home-hero-carousel__logo-mask--left"></rect></clipPath> <clipPath id="clip-path-right"><rect width="200" height="200" fill="#fff" class="home-hero-carousel__logo-mask home-hero-carousel__logo-mask--right"></rect></clipPath></defs> <g transform="translate(-650 -320)"><g transform="translate(650 320)" clip-path="url(#clip-path-left)"><g transform="translate(0.556 28.57)"><path d="M99.163,0,0,36.414V56.582L99.163,20.168Z" transform="translate(99.163 56.582) rotate(180)" fill="#fff"></path> <path d="M198.322,20.168V0L99.159,36.414,0,72.829V93L99.159,56.582Z" transform="translate(198.323 137.815) rotate(180)" fill="#fff"></path></g></g> <g transform="translate(650 320)" clip-path="url(#clip-path-right)"><g transform="translate(0.557 33.052)"><path d="M198.322,0,99.159,36.414,0,72.829V93L99.159,56.582l99.163-36.414Z" transform="translate(198.322 92.997) rotate(180)" fill="#fff"></path> <path d="M99.163,0,0,36.414V56.582L99.163,20.168Z" transform="translate(198.886 138.375) rotate(180)" fill="#fff"></path></g></g></g></svg>