<svg xmlns="http://www.w3.org/2000/svg" xmlns:xlink="http://www.w3.org/1999/xlink" viewBox="0 0 500 200" width="current" height="current" preserveAspectRatio="xMidYMid meet" style="width: 100%; height: 100%; transform: translate3d(0px, 0px, 0px); content-visibility: visible;"><defs><clipPath id="__lottie_element_35"><rect width="500" height="200" x="0" y="0"></rect></clipPath><clipPath id="__lottie_element_40"><path d="M0,0 L222,0 L222,83 L0,83z"></path></clipPath><mask id="__lottie_element_41"><path fill="#ffffff" clip-rule="nonzero" d=" M0,0 C0,0 221.13800048828125,0 221.13800048828125,0 C221.13800048828125,0 221.13800048828125,82.00299835205078 221.13800048828125,82.00299835205078 C221.13800048828125,82.00299835205078 0,82.00299835205078 0,82.00299835205078 C0,82.00299835205078 0,0 0,0" fill-opacity="1"></path></mask><clipPath id="__lottie_element_44"><path d="M0,0 L242,0 L242,247 L0,247z"></path></clipPath></defs><g clip-path="url(#__lottie_element_35)"><g clip-path="url(#__lottie_element_40)" transform="matrix(2,0,0,2,28,29.000999450683594)" opacity="1" style="display: block;"><g mask="url(#__lottie_element_41)"><g transform="matrix(1,0,0,1,-0.00099945068359375,13.44000244140625)" opacity="1" style="display: block;"><g opacity="1" transform="matrix(1,0,0,1,0,0)"><path fill="rgb(255,85,85)" fill-opacity="1" d=" M110.56700134277344,0 C138.88900756835938,0 164.52999877929688,11.479999542236328 183.09100341796875,30.040000915527344 C192.41900634765625,39.369998931884766 199.95799255371094,50.48899841308594 205.1510009765625,62.83700180053711 C205.1510009765625,62.83700180053711 220.75100708007812,56.367000579833984 220.75100708007812,56.367000579833984 C220.75100708007812,56.367000579833984 221.13900756835938,57.301998138427734 221.13900756835938,57.301998138427734 C210.97799682617188,61.516998291015625 203.63099670410156,64.56400299072266 193.99099731445312,68.56199645996094 C193.99099731445312,68.56199645996094 193.60299682617188,67.62699890136719 193.60299682617188,67.62699890136719 C193.60299682617188,67.62699890136719 203.54600524902344,63.50199890136719 203.54600524902344,63.50199890136719 C198.50399780273438,51.512001037597656 191.21200561523438,40.70199966430664 182.1959991455078,31.60099983215332 C182.1959991455078,31.60099983215332 174.60299682617188,39.19499969482422 174.60299682617188,39.19499969482422 C174.38099670410156,38.97200012207031 174.15899658203125,38.75 173.93600463867188,38.529998779296875 C173.93600463867188,38.529998779296875 181.5279998779297,30.93600082397461 181.5279998779297,30.93600082397461 C172.4199981689453,21.91200065612793 161.5989990234375,14.612000465393066 149.5970001220703,9.569000244140625 C149.5970001220703,9.569000244140625 145.48699951171875,19.489999771118164 145.48699951171875,19.489999771118164 C145.197998046875,19.368999481201172 144.906005859375,19.25200080871582 144.61500549316406,19.134000778198242 C144.61500549316406,19.134000778198242 148.7259979248047,9.208999633789062 148.7259979248047,9.208999633789062 C137.09300231933594,4.447999954223633 124.37100219726562,1.7979999780654907 111.03800201416016,1.7369999885559082 C111.03800201416016,1.7369999885559082 111.03800201416016,12.47599983215332 111.03800201416016,12.47599983215332 C110.88099670410156,12.47599983215332 110.7249984741211,12.470999717712402 110.56700134277344,12.470999717712402 C110.40899658203125,12.470999717712402 110.25299835205078,12.47599983215332 110.09600067138672,12.47599983215332 C110.09600067138672,12.47599983215332 110.09600067138672,1.7369999885559082 110.09600067138672,1.7369999885559082 C96.76200103759766,1.7979999780654907 84.04100036621094,4.447000026702881 72.40799713134766,9.206999778747559 C72.40799713134766,9.206999778747559 76.51899719238281,19.134000778198242 76.51899719238281,19.134000778198242 C76.22799682617188,19.253000259399414 75.93599700927734,19.368999481201172 75.64700317382812,19.489999771118164 C75.64700317382812,19.489999771118164 71.53700256347656,9.569000244140625 71.53700256347656,9.569000244140625 C59.53499984741211,14.61299991607666 48.7130012512207,21.910999298095703 39.60499954223633,30.934999465942383 C39.60499954223633,30.934999465942383 47.198001861572266,38.529998779296875 47.198001861572266,38.529998779296875 C46.974998474121094,38.75 46.75299835205078,38.97200012207031 46.53200149536133,39.19499969482422 C46.53200149536133,39.19499969482422 38.93899917602539,31.60300064086914 38.93899917602539,31.60300064086914 C29.926000595092773,40.70000076293945 22.635000228881836,51.50600051879883 17.593000411987305,63.49100112915039 C17.593000411987305,63.49100112915039 27.53700065612793,67.61599731445312 27.53700065612793,67.61599731445312 C27.53700065612793,67.61599731445312 27.14900016784668,68.5510025024414 27.14900016784668,68.5510025024414 C18.099000930786133,64.7969970703125 9.053999900817871,61.04600143432617 0,57.29100036621094 C0,57.29100036621094 0.3889999985694885,56.35599899291992 0.3889999985694885,56.35599899291992 C0.3889999985694885,56.35599899291992 15.98799991607666,62.82600021362305 15.98799991607666,62.82600021362305 C21.18000030517578,50.481998443603516 28.716999053955078,39.367000579833984 38.042999267578125,30.040000915527344 C56.604000091552734,11.479999542236328 82.24600219726562,0 110.56700134277344,0"></path></g></g></g></g><g transform="matrix(2,0,0,2,250,112.0009994506836)" opacity="1" style="display: block;"></g><g clip-path="url(#__lottie_element_44)" transform="matrix(2,0,0,2,8.000030517578125,9.996978759765625)" opacity="1" style="display: block;"><g style="display: none;"><g><path></path></g><g><path stroke-linecap="butt" stroke-linejoin="miter" fill-opacity="0" stroke-miterlimit="4"></path></g></g><g transform="matrix(1,0,0,1,114.82099914550781,38.29399871826172)" opacity="1" style="display: block;"><g opacity="1" transform="matrix(1,0,0,1,0,0)"><path fill="rgb(255,85,85)" fill-opacity="1" d=" M6.177999973297119,0 C6.177999973297119,0 9.307000160217285,5.420000076293945 9.307000160217285,5.420000076293945 C9.307000160217285,5.420000076293945 12.357000350952148,10.70199966430664 12.357000350952148,10.70199966430664 C12.357000350952148,10.70199966430664 6.177999973297119,7.22599983215332 6.177999973297119,7.22599983215332 C6.177999973297119,7.22599983215332 0,10.70199966430664 0,10.70199966430664 C0,10.70199966430664 3.0490000247955322,5.420000076293945 3.0490000247955322,5.420000076293945 C3.0490000247955322,5.420000076293945 6.177999973297119,0 6.177999973297119,0z"></path></g></g><g transform="matrix(1,0,0,1,114.8219985961914,0)" opacity="1" style="display: block;"><g opacity="1" transform="matrix(1,0,0,1,0,0)"><path fill="rgb(255,85,85)" fill-opacity="1" d=" M6.178999900817871,10.70199966430664 C6.178999900817871,10.70199966430664 9.307999610900879,5.2820000648498535 9.307999610900879,5.2820000648498535 C9.307999610900879,5.2820000648498535 12.357000350952148,0 12.357000350952148,0 C12.357000350952148,0 6.178999900817871,3.4760000705718994 6.178999900817871,3.4760000705718994 C6.178999900817871,3.4760000705718994 0,0 0,0 C0,0 3.049999952316284,5.2820000648498535 3.049999952316284,5.2820000648498535 C3.049999952316284,5.2820000648498535 6.178999900817871,10.70199966430664 6.178999900817871,10.70199966430664z"></path></g></g><g transform="matrix(1,0,0,1,121,24.49799919128418)" opacity="1" style="display: block;"></g></g></g></svg>